<svg xmlns="http://www.w3.org/2000/svg" viewBox="0 0 64 64" fill="currentColor">
  <!-- Simplified Bowl of Hygieia for favicon -->
  <!-- Bowl -->
  <path d="M18 38c0-8 6-14 14-14s14 6 14 14-6 14-14 14-14-6-14-14z" stroke="currentColor" stroke-width="2.5" fill="none"/>
  <ellipse cx="32" cy="38" rx="14" ry="4" stroke="currentColor" stroke-width="2" fill="none"/>
  <!-- Stem -->
  <rect x="30" y="52" width="4" height="8" rx="1" fill="currentColor"/>
  <!-- Base -->
  <path d="M24 60c0-1 4-2 8-2s8 1 8 2-4 2-8 2-8-1-8-2z" fill="currentColor"/>
  <!-- Serpent winding -->
  <path d="M18 38c-8-2-8-18 0-22" stroke="currentColor" stroke-width="2.5" fill="none" stroke-linecap="round"/>
  <path d="M46 38c8-2 8-18 0-22" stroke="currentColor" stroke-width="2.5" fill="none" stroke-linecap="round"/>
  <path d="M22 24c-2-6 1-12 8-12" stroke="currentColor" stroke-width="2.5" fill="none" stroke-linecap="round"/>
  <path d="M42 24c2-6-1-12-8-12" stroke="currentColor" stroke-width="2.5" fill="none" stroke-linecap="round"/>
  <!-- Head -->
  <path d="M26 18c0-2 1-5 4-5s5 1 5 4-2 5-4 5c-2 0-3-1-3-3" stroke="currentColor" stroke-width="2.5" fill="none" stroke-linecap="round"/>
</svg>
